<svg xmlns="http://www.w3.org/2000/svg" viewBox="0 0 900 506" width="900" height="506" font-family="'Noto Sans', 'Helvetica Neue', Arial, 'Liberation Sans', sans-serif" role="img">
<title>Realized net APY by vault size</title>
<rect x="0" y="0" width="900" height="506" fill="#ffffff"/>
<text data-role="title" x="24" y="34" font-size="18" font-weight="600" fill="#0b0b0b">Realized net APY by vault size</text>
<text data-role="subtitle" x="24" y="56" font-size="13" fill="#52514e">Sealed era heldout-c · 16 vault sizes, every 3rd origin · markers at the 4 registered tiers</text>
<line x1="24.0" y1="78" x2="48.0" y2="78" stroke="#2a78d6" stroke-width="3" stroke-linecap="round"/>
<circle data-role="legend-marker" cx="36.0" cy="78.0" r="5" fill="#2a78d6" stroke="#ffffff" stroke-width="1.5"/>
<text data-role="legend-label" x="58.0" y="82" font-size="12" font-weight="600" fill="#0b0b0b">SRCLA (proposed)</text>
<line x1="308.0" y1="78" x2="332.0" y2="78" stroke="#eb6834" stroke-width="2" stroke-linecap="round"/>
<rect data-role="legend-marker" x="316.2" y="74.2" width="7.6" height="7.6" rx="1" fill="#eb6834" stroke="#ffffff" stroke-width="1.5"/>
<text data-role="legend-label" x="342.0" y="82" font-size="12" fill="#0b0b0b">B1 · highest displayed rate</text>
<line x1="592.0" y1="78" x2="616.0" y2="78" stroke="#1baf7a" stroke-width="2" stroke-linecap="round"/>
<path data-role="legend-marker" d="M604.0,72.8 L608.5,81.4 L599.5,81.4 Z" fill="#1baf7a" stroke="#ffffff" stroke-width="1.5"/>
<text data-role="legend-label" x="626.0" y="82" font-size="12" fill="#0b0b0b">B2 · capacity-aware, no uncertainty</text>
<line x1="24.0" y1="100" x2="48.0" y2="100" stroke="#8a8883" stroke-width="1.75" stroke-linecap="round" stroke-dasharray="6 4"/>
<circle data-role="legend-marker" cx="36.0" cy="100.0" r="4" fill="#ffffff" stroke="#8a8883" stroke-width="2"/>
<text data-role="legend-label" x="58.0" y="104" font-size="12" fill="#0b0b0b">B2u · B2, no reserve (diagnostic)</text>
<line x1="308.0" y1="100" x2="332.0" y2="100" stroke="#eda100" stroke-width="2" stroke-linecap="round"/>
<path data-role="legend-marker" d="M320.0,94.6 L325.4,100.0 L320.0,105.4 L314.6,100.0 Z" fill="#eda100" stroke="#ffffff" stroke-width="1.5"/>
<text data-role="legend-label" x="342.0" y="104" font-size="12" fill="#0b0b0b">B3 · B2 + movement-cost threshold</text>
<line x1="592.0" y1="100" x2="616.0" y2="100" stroke="#e87ba4" stroke-width="2" stroke-linecap="round"/>
<path data-role="legend-marker" d="M604.0,105.2 L608.5,96.6 L599.5,96.6 Z" fill="#e87ba4" stroke="#ffffff" stroke-width="1.5"/>
<text data-role="legend-label" x="626.0" y="104" font-size="12" fill="#0b0b0b">B4 · frozen robust allocation</text>
<rect data-role="plot-area" x="76" y="124" width="796" height="320" fill="none"/>
<line x1="76" y1="444.0" x2="872" y2="444.0" stroke="#a8a79f" stroke-width="1"/>
<text data-role="y-tick-label" x="66" y="448.0" font-size="12" text-anchor="end" fill="#52514e">2.5%</text>
<line x1="76" y1="382.0" x2="872" y2="382.0" stroke="#e7e6e1" stroke-width="1"/>
<text data-role="y-tick-label" x="66" y="386.0" font-size="12" text-anchor="end" fill="#52514e">2.75%</text>
<line x1="76" y1="320.0" x2="872" y2="320.0" stroke="#e7e6e1" stroke-width="1"/>
<text data-role="y-tick-label" x="66" y="324.0" font-size="12" text-anchor="end" fill="#52514e">3%</text>
<line x1="76" y1="258.0" x2="872" y2="258.0" stroke="#e7e6e1" stroke-width="1"/>
<text data-role="y-tick-label" x="66" y="262.0" font-size="12" text-anchor="end" fill="#52514e">3.25%</text>
<line x1="76" y1="196.0" x2="872" y2="196.0" stroke="#e7e6e1" stroke-width="1"/>
<text data-role="y-tick-label" x="66" y="200.0" font-size="12" text-anchor="end" fill="#52514e">3.5%</text>
<line x1="76" y1="134.0" x2="872" y2="134.0" stroke="#e7e6e1" stroke-width="1"/>
<text data-role="y-tick-label" x="66" y="138.0" font-size="12" text-anchor="end" fill="#52514e">3.75%</text>
<line x1="76.0" y1="124" x2="76.0" y2="444" stroke="#e7e6e1" stroke-width="1"/>
<line x1="76.0" y1="444" x2="76.0" y2="450" stroke="#a8a79f" stroke-width="1"/>
<text data-role="x-tick-label" x="76.0" y="466" font-size="12" text-anchor="middle" fill="#52514e">$10k</text>
<line x1="155.9" y1="444" x2="155.9" y2="448" stroke="#a8a79f" stroke-width="1"/>
<line x1="202.6" y1="444" x2="202.6" y2="448" stroke="#a8a79f" stroke-width="1"/>
<line x1="235.7" y1="444" x2="235.7" y2="448" stroke="#a8a79f" stroke-width="1"/>
<line x1="261.5" y1="444" x2="261.5" y2="448" stroke="#a8a79f" stroke-width="1"/>
<line x1="282.5" y1="444" x2="282.5" y2="448" stroke="#a8a79f" stroke-width="1"/>
<line x1="300.2" y1="444" x2="300.2" y2="448" stroke="#a8a79f" stroke-width="1"/>
<line x1="315.6" y1="444" x2="315.6" y2="448" stroke="#a8a79f" stroke-width="1"/>
<line x1="329.2" y1="444" x2="329.2" y2="448" stroke="#a8a79f" stroke-width="1"/>
<line x1="341.3" y1="124" x2="341.3" y2="444" stroke="#e7e6e1" stroke-width="1"/>
<line x1="341.3" y1="444" x2="341.3" y2="450" stroke="#a8a79f" stroke-width="1"/>
<text data-role="x-tick-label" x="341.3" y="466" font-size="12" text-anchor="middle" fill="#52514e">$100k</text>
<line x1="421.2" y1="444" x2="421.2" y2="448" stroke="#a8a79f" stroke-width="1"/>
<line x1="467.9" y1="444" x2="467.9" y2="448" stroke="#a8a79f" stroke-width="1"/>
<line x1="501.1" y1="444" x2="501.1" y2="448" stroke="#a8a79f" stroke-width="1"/>
<line x1="526.8" y1="444" x2="526.8" y2="448" stroke="#a8a79f" stroke-width="1"/>
<line x1="547.8" y1="444" x2="547.8" y2="448" stroke="#a8a79f" stroke-width="1"/>
<line x1="565.6" y1="444" x2="565.6" y2="448" stroke="#a8a79f" stroke-width="1"/>
<line x1="581.0" y1="444" x2="581.0" y2="448" stroke="#a8a79f" stroke-width="1"/>
<line x1="594.5" y1="444" x2="594.5" y2="448" stroke="#a8a79f" stroke-width="1"/>
<line x1="606.7" y1="124" x2="606.7" y2="444" stroke="#e7e6e1" stroke-width="1"/>
<line x1="606.7" y1="444" x2="606.7" y2="450" stroke="#a8a79f" stroke-width="1"/>
<text data-role="x-tick-label" x="606.7" y="466" font-size="12" text-anchor="middle" fill="#52514e">$1M</text>
<line x1="686.5" y1="444" x2="686.5" y2="448" stroke="#a8a79f" stroke-width="1"/>
<line x1="733.3" y1="444" x2="733.3" y2="448" stroke="#a8a79f" stroke-width="1"/>
<line x1="766.4" y1="444" x2="766.4" y2="448" stroke="#a8a79f" stroke-width="1"/>
<line x1="792.1" y1="444" x2="792.1" y2="448" stroke="#a8a79f" stroke-width="1"/>
<line x1="813.1" y1="444" x2="813.1" y2="448" stroke="#a8a79f" stroke-width="1"/>
<line x1="830.9" y1="444" x2="830.9" y2="448" stroke="#a8a79f" stroke-width="1"/>
<line x1="846.3" y1="444" x2="846.3" y2="448" stroke="#a8a79f" stroke-width="1"/>
<line x1="859.9" y1="444" x2="859.9" y2="448" stroke="#a8a79f" stroke-width="1"/>
<line x1="872.0" y1="124" x2="872.0" y2="444" stroke="#e7e6e1" stroke-width="1"/>
<line x1="872.0" y1="444" x2="872.0" y2="450" stroke="#a8a79f" stroke-width="1"/>
<text data-role="x-tick-label" x="872.0" y="466" font-size="12" text-anchor="middle" fill="#52514e">$10M</text>
<text x="474" y="492" font-size="13" text-anchor="middle" fill="#52514e">Vault size (USDC, log scale)</text>
<text x="22" y="284.0" font-size="13" text-anchor="middle" fill="#52514e" transform="rotate(-90 22 284.0)">Realized net APY (%)</text>
<path data-role="series" data-policy="b1" d="M76.0,208.5 L181.6,204.4 L261.5,203.0 L341.3,202.3 L446.9,201.9 L526.8,201.8 L573.5,195.0 L606.7,201.7 L653.4,196.3 L686.5,194.8 L733.3,190.7 L766.4,201.2 L792.1,212.3 L822.4,217.2 L846.3,209.3 L872.0,232.0" fill="none" stroke="#eb6834" stroke-width="2" stroke-linejoin="round" stroke-linecap="round"/>
<path data-role="series" data-policy="b2" d="M76.0,252.6 L181.6,249.4 L261.5,248.3 L341.3,247.6 L446.9,247.6 L526.8,247.8 L573.5,250.4 L606.7,253.2 L653.4,261.5 L686.5,273.0 L733.3,277.6 L766.4,312.7 L792.1,318.8 L822.4,341.9 L846.3,368.6 L872.0,413.2" fill="none" stroke="#1baf7a" stroke-width="2" stroke-linejoin="round" stroke-linecap="round"/>
<path data-role="series" data-policy="b2u" d="M76.0,226.3 L181.6,222.9 L261.5,222.1 L341.3,221.5 L446.9,220.3 L526.8,222.6 L573.5,218.9 L606.7,217.9 L653.4,243.1 L686.5,241.7 L733.3,246.6 L766.4,242.4 L792.1,277.4 L822.4,273.5 L846.3,269.6 L872.0,280.3" fill="none" stroke="#8a8883" stroke-width="1.75" stroke-linejoin="round" stroke-linecap="round" stroke-dasharray="6 4"/>
<path data-role="series" data-policy="b3" d="M76.0,263.0 L181.6,261.8 L261.5,261.4 L341.3,261.2 L446.9,257.6 L526.8,258.8 L573.5,261.5 L606.7,265.4 L653.4,231.4 L686.5,262.3 L733.3,272.8 L766.4,283.6 L792.1,314.7 L822.4,343.8 L846.3,352.7 L872.0,376.9" fill="none" stroke="#eda100" stroke-width="2" stroke-linejoin="round" stroke-linecap="round"/>
<path data-role="series" data-policy="b4" d="M76.0,140.7 L181.6,140.4 L261.5,140.3 L341.3,140.3 L446.9,140.2 L526.8,140.2 L573.5,140.2 L606.7,140.2 L653.4,140.2 L686.5,140.2 L733.3,140.2 L766.4,140.2 L792.1,140.2 L822.4,140.2 L846.3,140.2 L872.0,140.2" fill="none" stroke="#e87ba4" stroke-width="2" stroke-linejoin="round" stroke-linecap="round"/>
<path data-role="series" data-policy="srcla" d="M76.0,232.4 L181.6,231.6 L261.5,231.4 L341.3,231.3 L446.9,231.2 L526.8,231.2 L573.5,241.3 L606.7,242.1 L653.4,259.0 L686.5,236.9 L733.3,247.7 L766.4,259.9 L792.1,288.6 L822.4,320.7 L846.3,366.0 L872.0,397.5" fill="none" stroke="#2a78d6" stroke-width="3" stroke-linejoin="round" stroke-linecap="round"/>
<rect data-role="marker" data-policy="b1" x="72.2" y="204.7" width="7.6" height="7.6" rx="1" fill="#eb6834" stroke="#ffffff" stroke-width="1.5"/>
<rect data-role="marker" data-policy="b1" x="337.5" y="198.5" width="7.6" height="7.6" rx="1" fill="#eb6834" stroke="#ffffff" stroke-width="1.5"/>
<rect data-role="marker" data-policy="b1" x="602.8" y="197.9" width="7.6" height="7.6" rx="1" fill="#eb6834" stroke="#ffffff" stroke-width="1.5"/>
<rect data-role="marker" data-policy="b1" x="868.2" y="228.2" width="7.6" height="7.6" rx="1" fill="#eb6834" stroke="#ffffff" stroke-width="1.5"/>
<path data-role="marker" data-policy="b2" d="M76.0,247.5 L80.5,256.0 L71.5,256.0 Z" fill="#1baf7a" stroke="#ffffff" stroke-width="1.5"/>
<path data-role="marker" data-policy="b2" d="M341.3,242.5 L345.8,251.0 L336.8,251.0 Z" fill="#1baf7a" stroke="#ffffff" stroke-width="1.5"/>
<path data-role="marker" data-policy="b2" d="M606.7,248.0 L611.2,256.6 L602.2,256.6 Z" fill="#1baf7a" stroke="#ffffff" stroke-width="1.5"/>
<path data-role="marker" data-policy="b2" d="M872.0,408.1 L876.5,416.6 L867.5,416.6 Z" fill="#1baf7a" stroke="#ffffff" stroke-width="1.5"/>
<circle data-role="marker" data-policy="b2u" cx="76.0" cy="226.3" r="4" fill="#ffffff" stroke="#8a8883" stroke-width="2"/>
<circle data-role="marker" data-policy="b2u" cx="341.3" cy="221.5" r="4" fill="#ffffff" stroke="#8a8883" stroke-width="2"/>
<circle data-role="marker" data-policy="b2u" cx="606.7" cy="217.9" r="4" fill="#ffffff" stroke="#8a8883" stroke-width="2"/>
<circle data-role="marker" data-policy="b2u" cx="872.0" cy="280.3" r="4" fill="#ffffff" stroke="#8a8883" stroke-width="2"/>
<path data-role="marker" data-policy="b3" d="M76.0,257.6 L81.4,263.0 L76.0,268.4 L70.6,263.0 Z" fill="#eda100" stroke="#ffffff" stroke-width="1.5"/>
<path data-role="marker" data-policy="b3" d="M341.3,255.8 L346.7,261.2 L341.3,266.6 L335.9,261.2 Z" fill="#eda100" stroke="#ffffff" stroke-width="1.5"/>
<path data-role="marker" data-policy="b3" d="M606.7,260.0 L612.1,265.4 L606.7,270.8 L601.3,265.4 Z" fill="#eda100" stroke="#ffffff" stroke-width="1.5"/>
<path data-role="marker" data-policy="b3" d="M872.0,371.5 L877.4,376.9 L872.0,382.3 L866.6,376.9 Z" fill="#eda100" stroke="#ffffff" stroke-width="1.5"/>
<path data-role="marker" data-policy="b4" d="M76.0,145.9 L80.5,137.3 L71.5,137.3 Z" fill="#e87ba4" stroke="#ffffff" stroke-width="1.5"/>
<path data-role="marker" data-policy="b4" d="M341.3,145.5 L345.8,136.9 L336.8,136.9 Z" fill="#e87ba4" stroke="#ffffff" stroke-width="1.5"/>
<path data-role="marker" data-policy="b4" d="M606.7,145.4 L611.2,136.9 L602.2,136.9 Z" fill="#e87ba4" stroke="#ffffff" stroke-width="1.5"/>
<path data-role="marker" data-policy="b4" d="M872.0,145.4 L876.5,136.9 L867.5,136.9 Z" fill="#e87ba4" stroke="#ffffff" stroke-width="1.5"/>
<circle data-role="marker" data-policy="srcla" cx="76.0" cy="232.4" r="5" fill="#2a78d6" stroke="#ffffff" stroke-width="1.5"/>
<circle data-role="marker" data-policy="srcla" cx="341.3" cy="231.3" r="5" fill="#2a78d6" stroke="#ffffff" stroke-width="1.5"/>
<circle data-role="marker" data-policy="srcla" cx="606.7" cy="242.1" r="5" fill="#2a78d6" stroke="#ffffff" stroke-width="1.5"/>
<circle data-role="marker" data-policy="srcla" cx="872.0" cy="397.5" r="5" fill="#2a78d6" stroke="#ffffff" stroke-width="1.5"/>
</svg>
